# xmcd CD database file
#
# Track frame offsets:
#	150
#	25380
#	88857
#	130212
#	166310
#	202222
#	260690
#
# Disc length: 4105 seconds
#
# Revision: 0
# Processed by: cddbd v1.4PL0 Copyright (c) Steve Scherf et al.
# Submitted via: CDex 1.51
#
DISCID=65100707
DTITLE=Martial Solal - NY-1
DYEAR=2003
DGENRE=Jazz
TTITLE0=NY-1
TTITLE1=What Is This Thing Called Love
TTITLE2=Suspect Rhythm
TTITLE3=Body and Soul
TTITLE4=Zig Zag
TTITLE5=Softly As In A Morning Sunrise
TTITLE6=Lombardy
EXTD=YEAR: 2003
EXTT0=
EXTT1=
EXTT2=
EXTT3=
EXTT4=
EXTT5=
EXTT6=
PLAYORDER=
